<mxfile host="app.diagrams.net" modified="2023-05-16T06:35:18.909Z" agent="Mozilla/5.0 (Windows NT 10.0; Win64; x64) AppleWebKit/537.36 (KHTML, like Gecko) Chrome/113.0.0.0 Safari/537.36 Edg/113.0.1774.42" etag="kVc47IuX8EWCJMQvKVlt" version="21.3.2" type="github">
  <diagram id="qzLwJ4X5yYsX_Pqfa8gJ" name="第 1 页">
    <mxGraphModel dx="1129" dy="655" grid="1" gridSize="10" guides="1" tooltips="1" connect="1" arrows="1" fold="1" page="1" pageScale="1" pageWidth="827" pageHeight="1169" math="0" shadow="0">
      <root>
        <mxCell id="0" />
        <mxCell id="1" parent="0" />
        <mxCell id="-XkHRvkM_vw5rs00xsbZ-1" value="" style="rounded=0;whiteSpace=wrap;html=1;glass=0;shadow=0;perimeterSpacing=0;fillColor=none;fontColor=#333333;strokeColor=#000000;fontFamily=宋体;" parent="1" vertex="1">
          <mxGeometry x="80" y="30" width="680" height="470" as="geometry" />
        </mxCell>
        <mxCell id="-XkHRvkM_vw5rs00xsbZ-2" value="&lt;font style=&quot;font-size: 20px;&quot;&gt;基于深度学习的用电安全管理类隐患分析系统&lt;/font&gt;" style="rounded=0;whiteSpace=wrap;html=1;shadow=0;glass=0;strokeColor=#000000;fontFamily=宋体;fontSize=12;fontColor=default;fillColor=none;strokeWidth=0;opacity=0;" parent="1" vertex="1">
          <mxGeometry x="80" y="30" width="680" height="40" as="geometry" />
        </mxCell>
        <mxCell id="-XkHRvkM_vw5rs00xsbZ-4" value="&lt;font style=&quot;font-size: 18px;&quot;&gt;用户操作模块&lt;/font&gt;" style="rounded=1;whiteSpace=wrap;html=1;shadow=0;glass=0;strokeColor=#000000;fontFamily=宋体;fontSize=18;fillColor=none;" parent="1" vertex="1">
          <mxGeometry x="105" y="70" width="635" height="40" as="geometry" />
        </mxCell>
        <mxCell id="-XkHRvkM_vw5rs00xsbZ-7" value="&lt;font style=&quot;font-size: 16px;&quot;&gt;数据存储模块&lt;/font&gt;" style="rounded=1;whiteSpace=wrap;html=1;shadow=0;glass=0;strokeColor=#000000;fontFamily=宋体;fontSize=20;fillColor=none;" parent="1" vertex="1">
          <mxGeometry x="100" y="380" width="470" height="40" as="geometry" />
        </mxCell>
        <mxCell id="8fsPF6jv214_PspzoPRW-3" value="&lt;font style=&quot;font-size: 16px;&quot;&gt;数据获取模块&lt;/font&gt;" style="rounded=1;whiteSpace=wrap;html=1;shadow=0;glass=0;strokeColor=#000000;fontFamily=宋体;fontSize=12;fillColor=none;verticalAlign=top;horizontal=1;" parent="1" vertex="1">
          <mxGeometry x="100" y="430" width="635" height="60" as="geometry" />
        </mxCell>
        <mxCell id="a34KFY5_O4nveKa4adVM-4" value="&lt;font style=&quot;font-size: 13px;&quot;&gt;地址获取图片信息&lt;/font&gt;" style="rounded=1;whiteSpace=wrap;html=1;fillColor=none;strokeColor=#000000;fontFamily=宋体;" parent="1" vertex="1">
          <mxGeometry x="333.75" y="458.7142857142857" width="167.5" height="25.71428571428571" as="geometry" />
        </mxCell>
        <mxCell id="a34KFY5_O4nveKa4adVM-6" value="&lt;font style=&quot;font-size: 13px;&quot;&gt;图片预处理&lt;/font&gt;" style="rounded=1;whiteSpace=wrap;html=1;fillColor=none;strokeColor=#000000;fontFamily=宋体;" parent="1" vertex="1">
          <mxGeometry x="547.5" y="458.7142857142857" width="167.5" height="25.71428571428571" as="geometry" />
        </mxCell>
        <mxCell id="a34KFY5_O4nveKa4adVM-7" value="&lt;font style=&quot;font-size: 13px;&quot;&gt;API数据抓取&lt;/font&gt;" style="rounded=1;whiteSpace=wrap;html=1;fillColor=none;strokeColor=#000000;fontFamily=宋体;" parent="1" vertex="1">
          <mxGeometry x="125" y="458.7142857142857" width="167.5" height="25.71428571428571" as="geometry" />
        </mxCell>
        <mxCell id="NONEwGI_FrMDEX2sMCA--4" value="" style="group" vertex="1" connectable="0" parent="1">
          <mxGeometry x="90" y="120" width="470" height="246.4000000000002" as="geometry" />
        </mxCell>
        <mxCell id="-XkHRvkM_vw5rs00xsbZ-13" value="用电安全隐患分析模块" style="rounded=1;whiteSpace=wrap;html=1;shadow=0;glass=0;strokeColor=#000000;fontFamily=宋体;fontSize=18;fillColor=none;verticalAlign=top;" parent="NONEwGI_FrMDEX2sMCA--4" vertex="1">
          <mxGeometry width="470" height="246.4" as="geometry" />
        </mxCell>
        <mxCell id="NONEwGI_FrMDEX2sMCA--3" value="" style="group" vertex="1" connectable="0" parent="NONEwGI_FrMDEX2sMCA--4">
          <mxGeometry x="12.123015873015902" y="40" width="445.7539682539682" height="110.88" as="geometry" />
        </mxCell>
        <mxCell id="a34KFY5_O4nveKa4adVM-10" value="&lt;font&gt;目标检测&lt;/font&gt;" style="rounded=1;whiteSpace=wrap;html=1;verticalAlign=top;fontSize=16;fillColor=none;strokeColor=#000000;container=0;fontFamily=宋体;" parent="NONEwGI_FrMDEX2sMCA--3" vertex="1">
          <mxGeometry width="445.7539682539682" height="110.88" as="geometry" />
        </mxCell>
        <mxCell id="a34KFY5_O4nveKa4adVM-11" value="&lt;span style=&quot;font-size: 13px;&quot;&gt;安全帽识别&lt;/span&gt;" style="rounded=1;whiteSpace=wrap;html=1;shadow=0;glass=0;strokeColor=#000000;fontFamily=宋体;fontSize=14;fontColor=default;fillColor=none;verticalAlign=middle;align=center;container=0;" parent="NONEwGI_FrMDEX2sMCA--3" vertex="1">
          <mxGeometry x="12.11793650793652" y="29.568000000000097" width="123.43095238095235" height="57.60832" as="geometry" />
        </mxCell>
        <mxCell id="NONEwGI_FrMDEX2sMCA--1" value="&lt;font style=&quot;font-size: 13px;&quot;&gt;火灾情况识别模块&lt;/font&gt;" style="rounded=1;whiteSpace=wrap;html=1;shadow=0;glass=0;strokeColor=#000000;fontFamily=宋体;fontSize=14;fontColor=default;fillColor=none;verticalAlign=middle;align=center;container=0;" vertex="1" parent="NONEwGI_FrMDEX2sMCA--3">
          <mxGeometry x="310.53063492063484" y="29.568000000000097" width="123.43095238095235" height="57.60832" as="geometry" />
        </mxCell>
        <mxCell id="NONEwGI_FrMDEX2sMCA--2" value="&lt;font style=&quot;font-size: 13px;&quot;&gt;配电所场景识别模块&lt;/font&gt;" style="rounded=1;whiteSpace=wrap;html=1;shadow=0;glass=0;strokeColor=#000000;fontFamily=宋体;fontSize=14;fontColor=default;fillColor=none;verticalAlign=middle;align=center;container=0;" vertex="1" parent="NONEwGI_FrMDEX2sMCA--3">
          <mxGeometry x="161.16015873015874" y="29.568000000000097" width="123.43095238095235" height="57.60832" as="geometry" />
        </mxCell>
        <mxCell id="NONEwGI_FrMDEX2sMCA--7" value="" style="group" vertex="1" connectable="0" parent="NONEwGI_FrMDEX2sMCA--4">
          <mxGeometry x="12.123015873015902" y="160.00000000000017" width="445.7539682539682" height="80.08000000000004" as="geometry" />
        </mxCell>
        <mxCell id="a34KFY5_O4nveKa4adVM-22" value="&lt;font&gt;模型算法&lt;/font&gt;" style="rounded=1;whiteSpace=wrap;html=1;verticalAlign=top;fontSize=16;fillColor=none;strokeColor=#000000;fontFamily=宋体;" parent="NONEwGI_FrMDEX2sMCA--7" vertex="1">
          <mxGeometry width="445.7539682539682" height="80.08000000000001" as="geometry" />
        </mxCell>
        <mxCell id="a34KFY5_O4nveKa4adVM-94" value="&lt;font style=&quot;font-size: 13px;&quot;&gt;YOLO&lt;/font&gt;" style="rounded=1;whiteSpace=wrap;html=1;fontFamily=宋体;fillColor=none;strokeColor=#000000;" parent="NONEwGI_FrMDEX2sMCA--7" vertex="1">
          <mxGeometry x="19.9979365079365" y="30.079999999999927" width="89.5238095238095" height="36.96" as="geometry" />
        </mxCell>
        <mxCell id="a34KFY5_O4nveKa4adVM-95" value="&lt;font style=&quot;font-size: 13px;&quot;&gt;R-CNN&lt;/font&gt;" style="rounded=1;whiteSpace=wrap;html=1;fontFamily=宋体;fillColor=none;strokeColor=#000000;" parent="NONEwGI_FrMDEX2sMCA--7" vertex="1">
          <mxGeometry x="125.14682539682539" y="29.999999999999886" width="89.5238095238095" height="36.96" as="geometry" />
        </mxCell>
        <mxCell id="a34KFY5_O4nveKa4adVM-27" value="&lt;font style=&quot;font-size: 13px;&quot;&gt;RetinaNet&lt;/font&gt;" style="rounded=1;whiteSpace=wrap;html=1;fontFamily=宋体;fillColor=none;strokeColor=#000000;" parent="NONEwGI_FrMDEX2sMCA--7" vertex="1">
          <mxGeometry x="229.9974603174603" y="30.000000000000114" width="89.5238095238095" height="36.96" as="geometry" />
        </mxCell>
        <mxCell id="a34KFY5_O4nveKa4adVM-99" value="&lt;font style=&quot;font-size: 13px;&quot;&gt;EfficientNet&lt;/font&gt;" style="rounded=1;whiteSpace=wrap;html=1;fontFamily=宋体;fillColor=none;strokeColor=#000000;" parent="NONEwGI_FrMDEX2sMCA--7" vertex="1">
          <mxGeometry x="339.99222222222215" y="29.999999999999886" width="89.5238095238095" height="36.96" as="geometry" />
        </mxCell>
        <mxCell id="NONEwGI_FrMDEX2sMCA--8" value="" style="group" vertex="1" connectable="0" parent="1">
          <mxGeometry x="580" y="120" width="160" height="120" as="geometry" />
        </mxCell>
        <mxCell id="8fsPF6jv214_PspzoPRW-1" value="&lt;font style=&quot;font-size: 16px;&quot;&gt;告警信息模块&lt;/font&gt;" style="rounded=1;whiteSpace=wrap;html=1;shadow=0;glass=0;strokeColor=#000000;fontFamily=宋体;fontSize=16;fillColor=none;verticalAlign=top;container=0;" parent="NONEwGI_FrMDEX2sMCA--8" vertex="1">
          <mxGeometry y="-3" width="160" height="120" as="geometry" />
        </mxCell>
        <mxCell id="a34KFY5_O4nveKa4adVM-1" value="告警预警" style="rounded=1;whiteSpace=wrap;html=1;fillColor=none;strokeColor=#000000;fontFamily=宋体;container=0;" parent="NONEwGI_FrMDEX2sMCA--8" vertex="1">
          <mxGeometry x="10" y="30" width="140" height="26.25" as="geometry" />
        </mxCell>
        <mxCell id="a34KFY5_O4nveKa4adVM-83" value="通知信息修改" style="rounded=1;whiteSpace=wrap;html=1;fillColor=none;strokeColor=#000000;fontFamily=宋体;container=0;" parent="NONEwGI_FrMDEX2sMCA--8" vertex="1">
          <mxGeometry x="10" y="90.75" width="140" height="26.25" as="geometry" />
        </mxCell>
        <mxCell id="a34KFY5_O4nveKa4adVM-84" value="信息通知" style="rounded=1;whiteSpace=wrap;html=1;fillColor=none;strokeColor=#000000;fontFamily=宋体;container=0;" parent="NONEwGI_FrMDEX2sMCA--8" vertex="1">
          <mxGeometry x="10" y="59.75" width="140" height="26.25" as="geometry" />
        </mxCell>
        <mxCell id="NONEwGI_FrMDEX2sMCA--9" value="" style="group" vertex="1" connectable="0" parent="1">
          <mxGeometry x="580" y="240" width="160" height="180" as="geometry" />
        </mxCell>
        <mxCell id="a34KFY5_O4nveKa4adVM-45" value="&lt;font style=&quot;font-size: 18px;&quot;&gt;系统控制模块&lt;/font&gt;" style="rounded=1;whiteSpace=wrap;html=1;shadow=0;glass=0;strokeColor=#000000;fontFamily=宋体;fontSize=20;fillColor=none;verticalAlign=top;container=0;" parent="NONEwGI_FrMDEX2sMCA--9" vertex="1">
          <mxGeometry width="160" height="180" as="geometry" />
        </mxCell>
        <mxCell id="a34KFY5_O4nveKa4adVM-53" value="模型选择" style="rounded=1;whiteSpace=wrap;html=1;fontFamily=宋体;fillColor=none;strokeColor=#000000;fontSize=13;container=0;" parent="NONEwGI_FrMDEX2sMCA--9" vertex="1">
          <mxGeometry x="19" y="30" width="120" height="34.5" as="geometry" />
        </mxCell>
        <mxCell id="a34KFY5_O4nveKa4adVM-57" value="调度模块" style="rounded=1;whiteSpace=wrap;html=1;fontFamily=宋体;fillColor=none;strokeColor=#000000;fontSize=13;verticalAlign=top;container=0;" parent="NONEwGI_FrMDEX2sMCA--9" vertex="1">
          <mxGeometry x="19" y="73" width="120" height="100" as="geometry" />
        </mxCell>
        <mxCell id="a34KFY5_O4nveKa4adVM-62" value="任务管理" style="rounded=1;whiteSpace=wrap;html=1;fillColor=none;strokeColor=#000000;fontFamily=宋体;container=0;" parent="NONEwGI_FrMDEX2sMCA--9" vertex="1">
          <mxGeometry x="38" y="100" width="82" height="20" as="geometry" />
        </mxCell>
        <mxCell id="a34KFY5_O4nveKa4adVM-65" value="任务调度" style="rounded=1;whiteSpace=wrap;html=1;fillColor=none;strokeColor=#000000;fontFamily=宋体;container=0;" parent="NONEwGI_FrMDEX2sMCA--9" vertex="1">
          <mxGeometry x="38" y="125" width="82" height="20" as="geometry" />
        </mxCell>
        <mxCell id="a34KFY5_O4nveKa4adVM-66" value="任务状态监控" style="rounded=1;whiteSpace=wrap;html=1;fillColor=none;strokeColor=#000000;fontFamily=宋体;container=0;" parent="NONEwGI_FrMDEX2sMCA--9" vertex="1">
          <mxGeometry x="39" y="149" width="82" height="20" as="geometry" />
        </mxCell>
      </root>
    </mxGraphModel>
  </diagram>
</mxfile>
